# xmcd CD database file
#
# Track frame offsets:
#	150
#	31152
#	46160
#	55465
#	74245
#	85492
#	103957
#	116775
#	130887
#	156337
#	168267
#	185327
#	196622
#
# Disc length: 2947 seconds
#
# Revision: 1
# Processed by: cddbd v1.5.2PL0 Copyright (c) Steve Scherf et al.
# Submitted via: CDex 1.51
#
DISCID=ba0b810d
DTITLE=Gershwin, George - Lady Be Good (1st recordings of the unknown George Gershwin) - Kevin Cole, Piano
DYEAR=1987
DGENRE=Jazz
TTITLE0=Lady, Be Good Overture
TTITLE1=Yan-Kee
TTITLE2=The World in Mine
TTITLE3=Waltz Medley
TTITLE4=Short Story
TTITLE5=Till Then
TTITLE6=Just Another Rhumba
TTITLE7=Wake Up, Brother, and Dance
TTITLE8=Primrose Medley
TTITLE9=Dance Alone with You
TTITLE10=All the Livelong Day
TTITLE11=Dawn of a New Day
TTITLE12=Girl Crazy Overture
EXTD=YEAR: 1987
EXTT0=
EXTT1=
EXTT2=
EXTT3=
EXTT4=
EXTT5=
EXTT6=
EXTT7=
EXTT8=
EXTT9=
EXTT10=
EXTT11=
EXTT12=
PLAYORDER=
